{
  "accessors": [
    {
      "bufferView": 2,
      "componentType": 5126,
      "count": 7884,
      "max": [
        1.1158933639526367,
        -3.5264911651611328,
        0.91279101371765137
      ],
      "min": [
        -1.1158932447433472,
        -4.6877503395080566,
        0.1785067617893219
      ],
      "type": "VEC3"
    },
    {
      "bufferView": 2,
      "byteOffset": 94608,
      "componentType": 5126,
      "count": 7884,
      "max": [
        0.999755859375,
        0.99978017807006836,
        1
      ],
      "min": [
        -0.999755859375,
        -0.99978017807006836,
        -1
      ],
      "type": "VEC3"
    },
    {
      "bufferView": 1,
      "componentType": 5126,
      "count": 7884,
      "max": [
        0,
        0
      ],
      "min": [
        0,
        0
      ],
      "type": "VEC2"
    },
    {
      "bufferView": 0,
      "componentType": 5125,
      "count": 46560,
      "max": [
        7883
      ],
      "min": [
        0
      ],
      "type": "SCALAR"
    },
    {
      "bufferView": 2,
      "byteOffset": 189216,
      "componentType": 5126,
      "count": 18284,
      "max": [
        1.0862879753112793,
        2.9636831283569336,
        1.253818154335022
      ],
      "min": [
        -1.0862879753112793,
        -4.338691234588623,
        -3.0231223106384277
      ],
      "type": "VEC3"
    },
    {
      "bufferView": 2,
      "byteOffset": 408624,
      "componentType": 5126,
      "count": 18284,
      "max": [
        0.99999451637268066,
        0.99999558925628662,
        0.99999988079071045
      ],
      "min": [
        -0.99999451637268066,
        -0.99999368190765381,
        -0.99998927116394043
      ],
      "type": "VEC3"
    },
    {
      "bufferView": 1,
      "byteOffset": 63072,
      "componentType": 5126,
      "count": 18284,
      "max": [
        0,
        0
      ],
      "min": [
        0,
        0
      ],
      "type": "VEC2"
    },
    {
      "bufferView": 0,
      "byteOffset": 186240,
      "componentType": 5125,
      "count": 108672,
      "max": [
        18283
      ],
      "min": [
        0
      ],
      "type": "SCALAR"
    }
  ],
  "asset": {
    "extras": {
      "author": "Antonio Rossini (https://sketchfab.com/Rox3d)",
      "license": "SKETCHFAB Standard (https://sketchfab.com/licenses)",
      "source": "https://sketchfab.com/3d-models/toro-b4cb2266b1154c578851d49a03cb5eb0",
      "title": "Toro"
    },
    "generator": "Sketchfab-9.52.0",
    "version": "2.0"
  },
  "bufferViews": [
    {
      "buffer": 0,
      "byteLength": 620928,
      "byteOffset": 0,
      "name": "floatBufferViews",
      "target": 34963
    },
    {
      "buffer": 0,
      "byteLength": 209344,
      "byteOffset": 620928,
      "byteStride": 8,
      "name": "floatBufferViews",
      "target": 34962
    },
    {
      "buffer": 0,
      "byteLength": 628032,
      "byteOffset": 830272,
      "byteStride": 12,
      "name": "floatBufferViews",
      "target": 34962
    }
  ],
  "buffers": [
    {
      "byteLength": 1458304,
      "uri": "scene.bin"
    }
  ],
  "materials": [
    {
      "doubleSided": true,
      "emissiveFactor": [
        0,
        0,
        0
      ],
      "name": "corna",
      "pbrMetallicRoughness": {
        "baseColorFactor": [
          0.80000000000000004,
          0.80000000000000004,
          0.80000000000000004,
          1
        ],
        "metallicFactor": 0,
        "roughnessFactor": 0.82111456180001685
      }
    },
    {
      "doubleSided": true,
      "emissiveFactor": [
        0,
        0,
        0
      ],
      "name": "toro",
      "pbrMetallicRoughness": {
        "baseColorFactor": [
          0.0038175728692805989,
          0.0037418826353599827,
          0.0037418826353599827,
          1
        ],
        "metallicFactor": 0,
        "roughnessFactor": 0.82111456180001685
      }
    }
  ],
  "meshes": [
    {
      "name": "Cube_corna_0",
      "primitives": [
        {
          "attributes": {
            "NORMAL": 1,
            "POSITION": 0,
            "TEXCOORD_0": 2
          },
          "indices": 3,
          "material": 0,
          "mode": 4
        }
      ]
    },
    {
      "name": "Cube_toro_0",
      "primitives": [
        {
          "attributes": {
            "NORMAL": 5,
            "POSITION": 4,
            "TEXCOORD_0": 6
          },
          "indices": 7,
          "material": 1,
          "mode": 4
        }
      ]
    }
  ],
  "nodes": [
    {
      "children": [
        1
      ],
      "name": "RootNode (gltf orientation matrix)",
      "rotation": [
        -0.70710678118654746,
        -0,
        -0,
        0.70710678118654757
      ]
    },
    {
      "children": [
        2
      ],
      "name": "RootNode (model correction matrix)"
    },
    {
      "children": [
        3
      ],
      "matrix": [
        1,
        0,
        0,
        0,
        0,
        0,
        1,
        0,
        0,
        -1,
        0,
        0,
        0,
        0,
        0,
        1
      ],
      "name": "06da422c96544e99a1b765af8f55fbc7.fbx"
    },
    {
      "children": [
        4
      ],
      "name": "RootNode"
    },
    {
      "children": [
        5,
        6
      ],
      "matrix": [
        25,
        0,
        0,
        0,
        0,
        -4.0730169847957853e-06,
        -24.99999999999967,
        0,
        0,
        24.99999999999967,
        -4.0730169847957853e-06,
        0,
        0,
        75.460990905761719,
        0,
        1
      ],
      "name": "Cube"
    },
    {
      "mesh": 0,
      "name": "Cube_corna_0"
    },
    {
      "mesh": 1,
      "name": "Cube_toro_0"
    }
  ],
  "scene": 0,
  "scenes": [
    {
      "name": "OSG_Scene",
      "nodes": [
        0
      ]
    }
  ]
}

